<svg version="1.1" width="142" height="110" viewBox="-1 -1 142 110" xmlns="http://www.w3.org/2000/svg" xmlns:xlink="http://www.w3.org/1999/xlink">
  <!-- Exported by Scratch - http://scratch.mit.edu/ -->
  <g id="ID0.981084621977061" transform="matrix(1, 0, 0, 1, -4, -5)">
    <path id="ID0.467679163441062" fill="#FFFFFF" d="M 107.248 42.441 L 108.076 42.516 L 108.197 43.814 L 107.199 43.764 L 107.248 42.441 "/>
    <path id="ID0.3556759529747069" fill="#FFFFFF" d="M 110.533 45.586 L 111.943 45.436 L 112.259 46.833 L 110.703 46.958 L 110.533 45.586 "/>
    <path id="ID0.192836441565305" fill="#272525" d="M 58.125 5.005 C 61.822 8.567 62.730 11.651 68.288 12.287 C 71.950 12.705 87.070 12.467 90.654 13.095 C 97.162 14.236 105.470 19.098 108.709 25.089 C 110.482 24.891 119.359 23.171 120.078 23.281 C 121.766 23.539 123.642 26.092 123.974 27.707 C 120.554 28.654 117.095 29.457 113.717 30.563 C 113.508 31.444 113.707 31.969 114.125 32.292 C 122.330 32.984 132.470 38.402 133.813 41.168 C 132.255 41.567 122.001 41.929 119.288 41.985 C 119.503 43.789 119.284 45.573 119.059 47.363 C 116.356 46.190 114.245 43.892 111.354 43.127 C 110.620 42.932 109.741 42.727 108.952 42.591 C 108.952 42.591 109.241 43.904 108.903 44.163 C 108.331 44.601 106.665 44.363 106.520 44.063 C 106.374 43.763 106.567 42.366 106.567 42.366 C 104.663 42.325 102.534 42.622 100.915 43.603 C 102.677 46.458 106.380 47.079 109.876 46.998 C 110.038 46.994 109.907 45.104 110.024 44.933 C 110.143 44.762 112.018 44.537 112.257 44.762 C 112.501 44.986 112.861 46.783 112.989 46.767 C 113.554 46.701 114.095 46.628 114.597 46.555 C 118.300 49.137 121.655 53.212 125.245 55.942 C 119.407 57.538 105.198 54.643 100.118 51.933 L 99.884 53.218 C 103.347 55.027 115.898 61.430 115.806 61.830 C 115.396 62.119 114.728 62.869 114.503 63.355 C 117.515 65.451 118.519 63.374 121.511 64.974 C 123.546 63.214 125.747 62.138 128.054 64.164 C 130.366 62.280 132.734 63.484 135.200 62.783 C 138.040 61.978 140.929 59.514 143.786 62.213 C 144.446 62.834 144.932 63.810 144.993 64.735 C 145.100 66.437 142.790 68.547 141.419 69.209 C 137.857 70.930 133.257 67.941 130.280 72.254 C 129.081 72.803 127.669 73.243 126.384 72.732 C 125.107 74.130 124.003 73.631 124.294 75.684 C 124.417 76.552 123.591 77.102 121.304 77.549 C 121.013 78.598 119.343 79.698 117.148 78.778 C 116.525 78.514 115.841 78.035 115.710 77.301 C 114.825 77.571 113.829 78.215 112.925 77.633 C 111.435 77.421 112.183 75.251 110.142 76.824 C 112.620 78.786 116.667 78.318 117.148 82.345 C 117.585 85.973 117.048 89.741 115.943 93.199 C 117.314 93.579 121.636 94.254 122.392 95.009 C 122.062 97.765 120.669 100.463 118.263 101.863 C 115.452 100.950 112.790 99.077 109.909 98.103 C 106.052 96.798 102.430 94.866 98.677 93.294 C 99.392 98.419 97.079 103.392 92.784 106.097 C 93.595 107.812 94.596 109.478 95.985 110.762 C 95.501 112.933 88.256 113.799 86.426 113.284 C 86.085 112.473 86.522 111.682 86.655 110.903 C 87.075 108.475 85.134 104.977 84.193 102.764 C 83.448 100.995 81.659 100.121 80.530 98.668 C 79.282 99.055 76.398 100.383 76.398 100.383 C 75.769 100.118 75.419 99.122 75.146 98.528 C 72.914 93.684 70.910 89.869 66.236 87.008 C 64.279 88.018 62.990 88.197 60.899 87.578 C 58.066 86.741 55.675 90.837 52.777 88.814 C 52.182 88.956 51.455 88.927 51.199 89.626 C 50.162 92.445 50.075 93.984 47.115 95.575 C 45.605 96.386 43.708 96.503 42.103 95.908 C 40.989 97.244 39.379 98.042 37.648 97.857 C 33.488 104.642 24.589 110.574 16.579 110.329 C 13.913 110.247 9.743 110.357 7.901 108.141 C 6.518 106.475 9.250 105.668 6.880 104.237 C 3.903 102.438 7.773 98.987 6.555 97.383 C 5.764 96.340 4.605 95.008 5.117 93.529 C 5.726 91.763 7.438 91.617 6.649 89.198 C 6.171 87.732 5.571 86.342 6.556 84.962 C 7.519 83.611 9.738 83.389 9.015 81.298 C 8.519 79.860 8.573 78.434 9.573 77.204 C 10.349 76.250 11.806 76.209 12.357 75.110 C 11.846 73.277 12.692 68.886 15.234 69.968 C 20.224 72.090 19.497 83.468 33.193 82.772 C 34.781 81.382 37.650 80.110 39.505 81.870 C 42.630 79.891 45.669 79.507 48.647 81.965 C 51.020 79.530 52.836 82.517 55.005 81.064 C 46.822 77.620 49.201 72.755 52.128 66.120 C 46.856 63.795 35.421 63.359 35.421 63.359 C 41.242 58.131 51.997 55.195 59.460 52.508 C 55.699 49.913 52.878 44.369 47.766 44.654 C 47.428 44.404 47.497 43.929 47.673 43.608 C 60.057 38.261 57.624 46.059 67.814 45.321 C 66.202 42.543 63.733 40.039 63.452 36.658 C 63.867 36.179 74.494 33.965 75.933 33.088 C 75.391 31.243 75.246 29.266 74.404 27.520 C 73.069 27.375 71.682 28.036 70.367 27.616 C 69.678 26.137 70.530 25.235 70.506 23.951 C 70.496 23.392 69.810 23.239 69.392 23.142 C 65.489 22.227 59.940 21.510 58.904 14.574 C 59.146 11.262 57.692 8.529 57.558 5.437 C 57.550 5.048 57.809 4.979 58.125 5.005 Z "/>
    <path id="ID0.26062925392761827" fill="#5B76DF" d="M 105.693 25.565 C 96.476 27.305 87.705 30.235 78.633 32.514 C 78.191 30.945 77.279 25.904 76.734 24.993 C 76.379 24.401 74.151 25.989 72.743 25.898 C 71.229 24.205 74.322 23.310 73.950 21.995 C 69.892 19.511 62.496 23.482 60.817 12.857 C 69.172 19.223 92.815 10.690 104.116 23.137 C 104.695 23.779 105.307 24.784 105.693 25.565 Z "/>
    <path id="ID0.258182390127331" fill="#5B76DF" d="M 120.820 26.946 C 116.351 28.576 89.924 35.979 71.397 46.222 C 69.663 43.697 68.155 41.001 67.035 38.131 C 79.445 33.970 114.088 25.763 118.408 25.423 C 120.066 25.292 120.281 25.477 120.820 26.946 Z "/>
    <path id="ID0.7135148821398616" fill="#272525" d="M 112.204 31.301 C 112.404 31.301 112.585 31.384 112.716 31.518 C 112.847 31.653 112.928 31.838 112.928 32.043 C 112.928 32.248 112.847 32.433 112.716 32.568 C 112.585 32.702 112.404 32.785 112.204 32.785 C 112.004 32.785 111.823 32.702 111.692 32.568 C 111.561 32.433 111.480 32.248 111.480 32.043 C 111.480 31.838 111.561 31.653 111.692 31.518 C 111.823 31.384 112.004 31.301 112.204 31.301 Z "/>
    <path id="ID0.5916124125942588" fill="#FFFFFF" d="M 112.375 32.086 L 109.535 31.836 C 110.279 31.884 112.514 30.087 112.375 32.086 Z "/>
    <path id="ID0.12500372808426619" fill="#9ED400" d="M 107.443 32.585 C 107.443 32.585 123.338 35.321 129.732 39.369 C 124.920 40.085 119.888 39.687 115.066 39.273 C 116.318 38.450 118.732 36.846 118.732 36.846 C 115.551 37.166 112.338 37.815 109.498 39.369 C 109.873 40.788 116.519 41.610 117.480 41.795 C 117.626 42.857 117.842 43.908 117.851 44.984 C 112.724 42.032 106.566 38.973 99.332 42.699 C 101.664 49.417 107.862 50.176 113.717 47.935 C 116.320 49.911 118.537 52.354 120.820 54.693 C 111.615 53.734 104.400 52.239 96.457 47.126 C 98.066 44.064 97.834 40.315 96.875 37.083 L 98.453 36.273 C 100.174 42.292 108.799 40.364 107.131 34.227 C 107 33.748 106.801 33.360 106.713 32.847 L 107.443 32.585 Z "/>
    <path id="ID0.9569902285002172" fill="#FFFFFF" d="M 104.425 37.975 C 102.404 39.296 101.477 37.425 100.446 35.513 C 101.825 34.480 103.557 34.226 105.044 33.419 C 106.177 35.579 105.732 37.120 104.425 37.975 Z "/>
    <path id="ID0.7037597838789225" fill="#FFFFFF" d="M 78.960 63.499 C 79.014 59.381 79.200 57.165 82.768 54.932 C 86.352 52.687 89.268 46.649 89.634 42.461 C 88.815 41.285 88.493 43.734 88.335 44.174 C 87.091 47.656 79.706 59.334 66.617 57.216 C 64.383 56.854 62.068 57.284 60.120 58.453 C 64.313 53.048 68.620 54.465 73.856 52.979 C 76.772 52.151 80.503 48.018 81.652 45.220 L 81.509 44.268 C 86.025 42.548 90.099 39.845 94.550 37.986 C 95.497 40.784 94.659 44.516 93.439 47.125 C 90.613 53.159 80.082 57.366 78.960 63.499 Z "/>
    <path id="ID0.5690256534144282" fill="#272525" d="M 105.059 34.181 C 105.409 34.181 105.726 34.326 105.955 34.561 C 106.185 34.796 106.327 35.121 106.327 35.479 C 106.327 35.837 106.185 36.162 105.955 36.397 C 105.726 36.632 105.409 36.777 105.059 36.777 C 104.709 36.777 104.392 36.632 104.163 36.397 C 103.933 36.162 103.791 35.837 103.791 35.479 C 103.791 35.121 103.933 34.796 104.163 34.561 C 104.392 34.326 104.709 34.181 105.059 34.181 Z "/>
    <path id="ID0.9844383583404124" fill="#FFFFFF" d="M 59.470 46.365 C 62.115 47.364 65.596 47.364 68.288 46.365 C 69.494 47.127 70.051 48.697 71.490 49.219 C 74.089 47.457 76.920 46.220 79.750 45.078 C 77.986 48.410 74.693 51.028 71.258 52.170 C 59.852 53.943 56.836 44.562 50.560 43.936 C 56.737 42.466 56.500 45.555 59.470 46.365 Z "/>
    <path id="ID0.38928273878991604" fill="#5B76DF" d="M 98.128 51.267 C 98.268 52.934 97.384 54.409 97.245 56.074 C 95.435 54.837 93.579 53.741 91.677 52.742 L 94.786 49.553 L 98.128 51.267 Z "/>
    <path id="ID0.29177603917196393" fill="#5B76DF" d="M 90.889 53.979 C 96.280 57.665 101.735 61.276 107.456 64.402 C 106.919 64.879 103.264 67.965 102.907 68.068 C 102.011 68.324 89.599 58.161 87.964 56.835 L 87.407 56.835 L 87.407 57.549 C 89.796 59.902 92.398 62.008 94.878 64.259 C 94.706 66.051 94.518 67.892 93.768 69.543 C 83.721 71.971 70.610 69.729 60.816 66.687 C 55.217 64.948 50.001 62.075 44.109 61.643 C 49.674 58.505 55.592 56.097 61.465 53.647 C 58.112 55.916 55.827 59.461 56.036 63.690 C 59.170 60.633 65.061 58.740 70.051 59.597 C 72.743 60.058 76.030 58.630 78.497 57.645 C 76.716 60.913 76.786 65.423 78.497 68.973 C 79.589 67.034 79.846 64.611 81.096 62.785 C 83.557 59.197 87.534 56.088 90.889 53.409 L 90.889 53.979 Z "/>
    <path id="ID0.6653400505892932" fill="#5B76DF" d="M 112.699 62.547 C 112.281 63.023 111.957 63.356 111.353 63.690 C 107.316 61.548 103.140 59.501 99.101 57.217 L 99.566 55.265 C 103.977 57.645 108.291 60.215 112.699 62.547 Z "/>
    <path id="ID0.09072072384878993" fill="#A16520" d="M 142.771 64.641 C 142.630 65.926 141.890 67.069 140.683 67.497 C 137.621 67.734 133.673 67.164 131.079 69.306 C 130.148 70.495 128.433 70.353 127.318 70.353 C 127.966 68.925 128.712 67.498 128.618 65.784 C 131.402 63.737 135.068 66.022 137.762 63.833 C 139.291 63.118 141.796 63.118 142.771 64.641 Z "/>
    <path id="ID0.07849206728860736" fill="#9ED400" d="M 125.648 69.781 C 123.351 69.794 123.814 67.787 124.951 66.545 C 123.160 66.522 123.572 67.978 122.722 67.830 C 122.767 67.166 122.691 66.480 122.398 65.879 C 123.349 65.314 124.169 64.614 125.252 65.124 C 127.828 66.338 127.373 67.425 125.648 69.781 Z "/>
    <path id="ID0.6129968883469701" fill="#9ED400" d="M 115.811 65.783 C 115.952 66.116 115.533 66.639 115.161 66.782 C 114.140 66.735 113.214 66.116 112.470 65.546 C 113.257 64.165 114.789 65.546 115.811 65.783 Z "/>
    <path id="ID0.13897270569577813" fill="#9ED400" d="M 118.500 68.400 C 118.420 70.751 120.203 74.616 122.723 74.921 C 122.807 75.458 122.243 75.818 121.936 76.158 C 120.205 76.341 119.600 75.083 118.500 74.111 C 118.111 73.765 117.381 74.138 117.480 74.681 C 117.605 75.369 119.187 76.702 119.707 77.203 C 118.096 79.008 116.334 76.068 116.041 74.681 C 116.041 74.681 114.795 77.111 113.396 76.396 C 111.959 73.463 113.816 70.978 111.494 70.110 L 106.574 68.255 C 107.920 67.719 109.146 66.317 109.875 66.118 C 111.725 66.593 114.223 67.918 116.041 68.492 C 116.543 66.718 117.832 65.966 119.383 65.779 C 119.768 65.998 120.656 65.965 120.821 66.446 C 121.227 67.638 119.027 67.604 118.500 68.400 Z "/>
    <path id="ID0.12700378755107522" fill="#FFFFFF" d="M 102.816 71.019 C 103.508 70.971 103.976 70.257 104.578 69.876 C 105.506 70.162 106.482 70.399 107.363 70.780 C 105.785 73.493 102.722 70.733 100.588 72.255 C 100.125 72.304 99.752 72.589 99.336 72.733 C 97.340 72.162 95.762 73.256 93.998 73.542 C 93.533 74.209 92.699 73.257 92.096 72.971 C 92.977 72.448 95.438 73.162 95.762 71.495 C 96.272 69.687 96.133 67.593 96.783 65.880 C 98.777 67.401 100.958 69.306 102.816 71.019 Z "/>
    <path id="ID0.6880621081218123" fill="#5B76DF" d="M 87.964 73.541 C 92.837 75.541 96.874 79.441 100.774 83.346 C 102.122 84.917 103.559 86.630 104.581 88.393 C 102.397 89.537 100.033 90.295 97.808 91.247 C 96.831 88.296 90.753 84.107 90.199 84.154 C 90.710 87.181 89.835 90.974 88.898 93.533 C 85.419 95.627 81.378 96.341 77.622 97.767 C 75.349 92.719 71.822 87.154 66.717 84.726 C 63.190 82.441 52.747 78.566 52.852 76.301 C 53.018 72.730 54.512 70.206 56.044 67.255 C 62.163 68.781 77.078 74.107 87.964 73.541 Z "/>
    <path id="ID0.5142515166662633" fill="#9ED400" d="M 125.091 71.019 C 125.231 71.781 124.532 72.637 123.837 73.067 C 122.399 73.067 121.518 71.256 120.729 70.210 C 120.821 69.829 121.242 69.782 121.518 69.545 C 122.957 69.638 123.837 70.448 125.091 71.019 Z "/>
    <path id="ID0.2146294848062098" fill="#A16520" d="M 110.796 74.352 C 109.775 74.495 108.477 73.829 107.456 75.018 C 106.062 75.494 104.624 74.874 103.559 76.254 C 101.887 77.063 99.985 76.443 98.360 76.969 C 97.339 77.112 96.878 75.873 96.132 75.492 C 97.986 74.730 100.262 73.493 102.444 74.349 C 104.581 73.493 107.177 73.827 109.038 72.253 C 109.642 72.016 110.429 72.302 111.030 72.064 L 110.796 74.352 Z "/>
    <path id="ID0.2817001729272306" fill="#E7C45E" d="M 31.534 85.298 C 29.436 89.072 32.366 94.798 35.432 97.055 C 35.493 97.522 34.766 97.968 34.504 98.338 C 31.892 102.029 27.340 106.384 22.948 107.477 C 20.016 108.206 14.331 108.772 11.578 107.333 C 9.087 106.033 11.223 105.741 10.789 103.907 C 10.263 101.679 6.982 103.095 8.237 100.623 C 8.918 99.281 11.093 98.219 10.233 96.387 C 9.576 94.990 7.341 95.362 7.449 93.770 C 11.058 90.256 7.268 88.528 8.145 86.916 C 8.767 85.773 11.119 86.044 12.136 84.061 C 13.198 81.993 9.198 79.579 12.368 78.348 C 13.122 78.057 13.690 77.924 14.363 77.397 C 15.563 76.459 13.819 71.942 16.591 73.876 C 17.639 74.608 18.742 78.163 19.932 79.493 C 21.680 81.445 23.598 83.146 25.826 84.490 C 27.713 85.626 29.476 85.191 31.534 85.298 Z "/>
    <path id="ID0.1710768500342965" fill="#FFFFFF" d="M 106.341 78.109 C 107.106 80.681 110.022 82.829 108.570 85.773 C 108.001 86.925 108.075 88.142 107.595 89.294 L 106.574 89.198 C 107.453 86.642 101.873 80.594 100.029 79.010 C 101.607 78.486 103.439 77.929 105.043 78.676 C 105.464 78.461 105.848 78.130 106.341 78.109 Z "/>
    <path id="ID0.5229676328599453" fill="#7E4094" d="M 108.514 78.199 C 110.436 79.970 112.188 80.695 112.992 83.189 C 114.231 87.056 112.507 89.127 112.114 93.570 C 113.770 94.019 114.426 93.591 116.204 94.216 C 117.956 94.840 116.132 97.562 115.913 99.456 C 115.718 101.252 118.975 101.649 120.292 100.453 C 122.114 98.807 123.505 97.460 123.505 94.964 C 123.505 92.097 121.530 90.922 120.392 88.276 C 119.417 86.005 119.246 84.535 118.249 82.289 C 116.639 78.673 111.335 75.305 108.514 78.199 Z "/>
    <path id="ID0.5065618618391454" fill="#272525" d="M 115.714 94.868 L 114.352 99.359 C 114.790 99.683 115.253 100.482 115.620 100.058 C 116.497 99.060 116.737 97.861 117.081 96.564 C 117.227 95.941 118.054 94.668 117.665 94.168 C 117.320 93.721 116.275 94.968 115.714 94.868 Z "/>
    <path id="ID0.3813134366646409" fill="#9E73BF" d="M 120.171 96.055 C 119.846 97.414 118.583 98.645 117.618 99.576 C 112.012 97.342 106.669 94.484 101.142 92.056 C 103.618 90.920 106.251 90.185 108.704 91.816 C 110.811 90.581 110.313 87.904 110.604 85.868 C 111.005 83.056 110.719 81.624 109.122 79.253 C 110.184 79.876 112.560 82.577 112.692 83.823 C 112.743 84.265 111.073 91.426 110.930 93.054 C 111.258 93.510 113.618 94.269 113.618 94.269 C 113.655 94.050 113.618 93.396 113.788 92.771 C 113.618 92.492 112.806 92.452 112.835 92.260 C 113.314 89.519 114.165 84.556 114.040 83.345 C 113.886 81.826 111.472 79.506 110.374 78.535 C 111.569 79.381 114.513 80.391 115.062 81.770 C 116.325 84.923 113.454 92.958 113.628 94.213 C 113.738 94.949 118.619 95.368 120.171 96.055 Z "/>
    <path id="ID0.564444612711668" fill="#272525" d="M 14.594 78.682 C 17.224 83.348 24.747 88.588 30.187 87.581 C 30.609 87.971 30.275 88.582 30.048 88.962 C 25.418 91.481 14.211 83.971 14.270 78.682 L 14.594 78.682 Z "/>
    <path id="ID0.7645384995266795" fill="#E7C45E" d="M 46.569 83.107 C 43.380 82.924 42.047 87.662 43.877 90.103 C 45.119 91.756 47.387 90.822 48.982 90.437 C 46.712 98.855 32.293 91.507 39.515 84.058 C 41.129 82.395 44.646 81.695 46.569 83.107 Z "/>
    <path id="ID0.029157309792935848" fill="#A16520" d="M 64.019 85.393 C 62.464 86.672 60.631 84.910 58.821 85.393 C 56.042 86.139 56.180 87.436 52.881 86.774 C 50.483 86.295 48.494 91.078 45.456 88.725 C 43.614 83.490 49.077 86.636 50.329 83.584 C 51.631 82.875 52.604 84.432 54.135 83.680 C 58.313 81.626 60.381 82.494 64.019 85.393 Z "/>
    <path id="ID0.4105938896536827" fill="#DC511B" d="M 37.427 83.488 C 36.055 86.099 35.146 89.769 36.963 92.388 C 37.759 93.534 38.956 94.200 39.980 95.101 C 36.499 97.941 29.781 88.898 36.082 83.822 C 36.689 83.489 36.888 83.295 37.427 83.488 Z "/>
    <path id="ID0.4460257668979466" fill="#272525" d="M 16.590 89.391 C 20.442 90.247 24.804 90.104 28.749 90.438 C 29.074 90.772 29.723 90.628 29.863 91.250 C 29.445 92.396 28.007 91.869 27.078 92.153 C 20.813 92.770 14.224 92.153 9.583 87.821 L 9.583 87.344 C 11.903 88.059 14.039 89.247 16.590 89.391 Z "/>
    <path id="ID0.9154204181395471" fill="#9E73BF" d="M 92.652 97.625 C 91.769 99.624 90.049 101.051 88.336 102.432 C 88.336 102.432 90.332 104.716 90.424 106.096 L 87.965 107.096 C 87.315 103.716 85.274 100.481 82.535 98.100 C 83.695 97.866 84.670 97.367 85.351 97.065 C 86.324 98.063 88.521 100.579 89.310 98.338 C 91.119 95.150 91.398 91.391 91.674 87.581 C 93.208 90.581 93.441 94.245 92.652 97.625 Z "/>
    <path id="ID0.6121204951778054" fill="#7E4094" d="M 91.537 104.145 L 90.750 102.766 C 93.760 100.507 95.994 97.177 95.438 93.202 C 95.147 91.140 93.917 89.453 93.119 87.585 C 99.141 93.448 98.266 99.542 91.537 104.145 Z "/>
    <path id="ID0.11157733155414462" fill="#272525" d="M 11.021 97.625 C 11.021 97.625 20.950 96.550 25.268 95.008 C 26.602 94.529 29.736 91.958 31.162 93.389 C 31.776 94.005 31.041 94.451 30.605 94.770 C 26.210 97.996 15.742 101.312 11.021 97.625 Z "/>
    <path id="ID0.26072704046964645" fill="#FFFFFF" d="M 88.197 97.291 C 87.685 97.244 87.314 96.768 86.849 96.482 C 87.314 96.148 87.916 96.195 88.426 96.050 L 88.197 97.291 Z "/>
    <path id="ID0.9428913961164653" fill="#272525" d="M 33.064 96.721 C 32.200 101.384 18.304 107.750 13.712 107.575 L 13.480 107.096 C 16.279 105.380 19.337 104.598 22.158 102.766 C 23.703 101.762 30.744 96.432 31.625 96.245 C 32.073 96.148 32.819 96.257 33.064 96.721 Z "/>
    <path id="ID0.4524457035586238" fill="#7E4094" d="M 93.115 110.332 C 91.709 111.264 90.051 111.328 88.427 111.236 C 88.559 110.236 87.563 108.793 89.075 108.476 C 89.937 108.291 90.882 107.784 91.763 107.904 C 92.139 108.393 93.037 109.691 93.115 110.332 Z "/>
  </g>
</svg>